<svg viewBox="0 0 512 512" xmlns="http://www.w3.org/2000/svg"><path d="m460.6 432.3h-409.2c-19.9 0-36.1-16.2-36.1-36.1v-279.1c0-19.9 16.1-36.1 36.1-36.1h409.3c19.9 0 36.1 16.2 36.1 36.1v279.1c-.1 19.9-16.2 36.1-36.2 36.1z" fill="#f5f7fa"/><g fill="#484f59"><path d="m431.2 362.1v-131.7h43.8c6.1 0 11.1-4.9 11.1-11.1 0-6.1-5-11.1-11.1-11.1h-43.8v-60.1c0-6.1-5-11.1-11.1-11.1s-11.1 5-11.1 11.1v60.1h-27.9v-60.1c0-6.1-4.9-11.1-11.1-11.1-6.1 0-11.1 5-11.1 11.1v60.1h-29v-60.1c0-6.1-4.9-11.1-11.1-11.1-6.1 0-11.1 5-11.1 11.1v60.1h-15.3v-60.1c0-6.1-5-11.1-11.1-11.1s-11.1 5-11.1 11.1v60.1h-21.2v-60.1c0-6.1-4.9-11.1-11.1-11.1-6.1 0-11.1 5-11.1 11.1v60.1h-15.7v-60.1c0-6.1-5-11.1-11.1-11.1s-11.1 5-11.1 11.1v60.1h-21.6v-60.1c0-6.1-5-11.1-11.1-11.1s-11.1 5-11.1 11.1v60.1h-17.4v-60.1c0-6.1-5-11.1-11.1-11.1s-11.1 5-11.1 11.1v60.1h-11.4v-60.1c0-6.1-5-11.1-11.1-11.1s-11.1 5-11.1 11.1v60.1h-44.8c-6.1 0-11.1 4.9-11.1 11.1 0 6.1 4.9 11.1 11.1 11.1h44.9v131.7c0 6.1 5 11.1 11.1 11.1s11.1-5 11.1-11.1v-131.7h11.7v77.8c0 6.1 5 11.1 11.1 11.1s11.1-4.9 11.1-11.1v-77.8h17.4v77.8c0 6.1 4.9 11.1 11.1 11.1 6.1 0 11.1-4.9 11.1-11.1v-77.8h21.3v77.8c0 6.1 5 11.1 11.1 11.1s11.1-4.9 11.1-11.1v-77.8h15.7v77.8c0 6.1 5 11.1 11.1 11.1s11.1-4.9 11.1-11.1v-77.8h21.5v77.8c0 6.1 5 11.1 11.1 11.1s11.1-4.9 11.1-11.1v-77.8h15.3v77.8c0 6.1 5 11.1 11.1 11.1s11.1-4.9 11.1-11.1v-77.8h29v77.8c0 6.1 5 11.1 11.1 11.1s11.1-4.9 11.1-11.1v-77.8h27.5v131.7c0 6.1 5 11.1 11.1 11.1s11.1-5 11.1-11.1zm-410.6-201.4c6.1 0 11.1-5 11.1-11.1v-45.1c0-5.4 4.4-9.9 9.9-9.9h36.6c6.1 0 11.1-5 11.1-11.1s-4.9-11.1-11.1-11.1h-36.7c-17.6 0-32 14.3-32 32v45.1c0 6.3 5 11.2 11.1 11.2zm57.5 256.6h-36.6c-5.4 0-9.9-4.4-9.9-9.9v-45.1c0-6.1-5-11.1-11.1-11.1s-11.1 5-11.1 11.1v45.1c0 17.6 14.3 32 32 32h36.6c6.1 0 11.1-5 11.1-11.1.1-6-4.9-11-11-11zm392.4-344.7h-36.6c-6.1 0-11.1 5-11.1 11.1s5 11.1 11.1 11.1h36.6c5.4 0 9.9 4.4 9.9 9.9v45.1c0 6.1 5 11.1 11.1 11.1s11.1-5 11.1-11.1v-45.1c-.1-17.8-14.5-32.1-32.1-32.1zm20.9 278.7c-6.1 0-11.1 5-11.1 11.1v45.1c0 5.4-4.4 9.9-9.9 9.9h-36.6c-6.1 0-11.1 5-11.1 11.1s5 11.1 11.1 11.1h36.6c17.6 0 32-14.3 32-32v-45.1c.1-6.3-4.9-11.2-11-11.2zm0 0"/><path d="m370.8 353.1h-249.6c-6.1 0-11.1 5-11.1 11.1s5 11.1 11.1 11.1h249.6c6.1 0 11.1-5 11.1-11.1 0-6.2-5-11.1-11.1-11.1zm0 0"/></g></svg>