<svg version="1.1" id="Layer_1" xmlns="http://www.w3.org/2000/svg" x="0" y="0" viewBox="0 0 512 512" xml:space="preserve"><style>.st31{fill:#484f59}</style><path d="M460.6 432.3H51.4c-19.9 0-36.1-16.2-36.1-36.1V117.1C15.3 97.2 31.4 81 51.4 81h409.3c19.9 0 36.1 16.2 36.1 36.1v279.1c-.1 19.9-16.2 36.1-36.2 36.1z" fill="#f5f7fa"/><path class="st31" d="M431.2 362.1V230.4H475c6.1 0 11.1-4.9 11.1-11.1 0-6.1-5-11.1-11.1-11.1h-43.8v-60.1c0-6.1-5-11.1-11.1-11.1s-11.1 5-11.1 11.1v60.1h-27.9v-60.1c0-6.1-4.9-11.1-11.1-11.1-6.1 0-11.1 5-11.1 11.1v60.1h-29v-60.1c0-6.1-4.9-11.1-11.1-11.1-6.1 0-11.1 5-11.1 11.1v60.1h-15.3v-60.1c0-6.1-5-11.1-11.1-11.1s-11.1 5-11.1 11.1v60.1H249v-60.1c0-6.1-4.9-11.1-11.1-11.1-6.1 0-11.1 5-11.1 11.1v60.1h-15.7v-60.1c0-6.1-5-11.1-11.1-11.1s-11.1 5-11.1 11.1v60.1h-21.6v-60.1c0-6.1-5-11.1-11.1-11.1s-11.1 5-11.1 11.1v60.1h-17.4v-60.1c0-6.1-5-11.1-11.1-11.1s-11.1 5-11.1 11.1v60.1H94.1v-60.1c0-6.1-5-11.1-11.1-11.1s-11.1 5-11.1 11.1v60.1H27.1c-6.1 0-11.1 4.9-11.1 11.1 0 6.1 4.9 11.1 11.1 11.1H72v131.7c0 6.1 5 11.1 11.1 11.1s11.1-5 11.1-11.1V230.4h11.7v77.8c0 6.1 5 11.1 11.1 11.1s11.1-4.9 11.1-11.1v-77.8h17.4v77.8c0 6.1 4.9 11.1 11.1 11.1 6.1 0 11.1-4.9 11.1-11.1v-77.8H189v77.8c0 6.1 5 11.1 11.1 11.1s11.1-4.9 11.1-11.1v-77.8h15.7v77.8c0 6.1 5 11.1 11.1 11.1s11.1-4.9 11.1-11.1v-77.8h21.5v77.8c0 6.1 5 11.1 11.1 11.1s11.1-4.9 11.1-11.1v-77.8h15.3v77.8c0 6.1 5 11.1 11.1 11.1s11.1-4.9 11.1-11.1v-77.8h29v77.8c0 6.1 5 11.1 11.1 11.1s11.1-4.9 11.1-11.1v-77.8H409v131.7c0 6.1 5 11.1 11.1 11.1s11.1-5 11.1-11.1zm0 0M20.6 160.7c6.1 0 11.1-5 11.1-11.1v-45.1c0-5.4 4.4-9.9 9.9-9.9h36.6c6.1 0 11.1-5 11.1-11.1s-4.9-11.1-11.1-11.1H41.5c-17.6 0-32 14.3-32 32v45.1c0 6.3 5 11.2 11.1 11.2zm0 0M78.1 417.3H41.5c-5.4 0-9.9-4.4-9.9-9.9v-45.1c0-6.1-5-11.1-11.1-11.1s-11.1 5-11.1 11.1v45.1c0 17.6 14.3 32 32 32H78c6.1 0 11.1-5 11.1-11.1.1-6-4.9-11-11-11zm0 0M470.5 72.6h-36.6c-6.1 0-11.1 5-11.1 11.1s5 11.1 11.1 11.1h36.6c5.4 0 9.9 4.4 9.9 9.9v45.1c0 6.1 5 11.1 11.1 11.1s11.1-5 11.1-11.1v-45.1c-.1-17.8-14.5-32.1-32.1-32.1zm0 0M491.4 351.3c-6.1 0-11.1 5-11.1 11.1v45.1c0 5.4-4.4 9.9-9.9 9.9h-36.6c-6.1 0-11.1 5-11.1 11.1s5 11.1 11.1 11.1h36.6c17.6 0 32-14.3 32-32v-45.1c.1-6.3-4.9-11.2-11-11.2zm0 0"/><path class="st31" d="M370.8 353.1H121.2c-6.1 0-11.1 5-11.1 11.1s5 11.1 11.1 11.1h249.6c6.1 0 11.1-5 11.1-11.1 0-6.2-5-11.1-11.1-11.1zm0 0"/></svg>