<svg viewBox="0 0 512 512" xmlns="http://www.w3.org/2000/svg"><rect fill="#cad8dd" height="332.8" rx="64" width="512" y="89.6"/><path d="m128 358.4h-51.2a12.8 12.8 0 0 1 0-25.6h51.2a12.8 12.8 0 1 1 0 25.6zm102.4 0h-51.2a12.8 12.8 0 0 1 0-25.6h51.2a12.8 12.8 0 1 1 0 25.6zm102.4 0h-51.2a12.8 12.8 0 0 1 0-25.6h51.2a12.8 12.8 0 1 1 0 25.6zm102.4 0h-51.2a12.8 12.8 0 0 1 0-25.6h51.2a12.8 12.8 0 1 1 0 25.6z" fill="#a1b9bf"/><circle cx="339.2" cy="198.4" fill="#e85454" r="44.8"/><circle cx="403.2" cy="198.4" fill="#ffa840" r="44.8"/><rect fill="#dde5e8" height="89.6" rx="31.2" width="102.4" x="64" y="153.6"/></svg>