<svg id="Layer_1" data-name="Layer 1" xmlns="http://www.w3.org/2000/svg" viewBox="0 0 512 512"><defs><style>.cls-2{fill:#a1b9bf}</style></defs><rect y="89.6" width="512" height="332.8" rx="64" ry="64" fill="#cad8dd"/><path class="cls-2" d="M128 358.4H76.8a12.8 12.8 0 010-25.6H128a12.8 12.8 0 110 25.6zM230.4 358.4h-51.2a12.8 12.8 0 010-25.6h51.2a12.8 12.8 0 110 25.6zM332.8 358.4h-51.2a12.8 12.8 0 010-25.6h51.2a12.8 12.8 0 110 25.6zM435.2 358.4H384a12.8 12.8 0 010-25.6h51.2a12.8 12.8 0 110 25.6z"/><circle cx="339.2" cy="198.4" r="44.8" fill="#e85454"/><circle cx="403.2" cy="198.4" r="44.8" fill="#ffa840"/><rect x="64" y="153.6" width="102.4" height="89.6" rx="31.2" ry="31.2" fill="#dde5e8"/></svg>