<svg viewBox="0 0 220 155" xmlns="http://www.w3.org/2000/svg" xmlns:xlink="http://www.w3.org/1999/xlink"><clipPath id="a"><path d="m151.14 27.17a64.67 64.67 0 1 1 -52.85-13.71"/></clipPath><path d="m123 6.3-.18 25.44" style="fill:none;stroke-linecap:round;stroke-width:2.5;stroke:#e57200;stroke-linejoin:round;stroke-dasharray:0 5"/><path d="m104.38 25.24 18.84 18.85 18.85-18.85" fill="none" stroke="#e57200" stroke-linecap="round" stroke-linejoin="round" stroke-width="2.5"/><g clip-path="url(#a)"><g fill="none" stroke-linecap="round" stroke-linejoin="round" stroke-width="2.5"><path d="m81.5 78.59h-7.5a5.08 5.08 0 0 0 -5 5.07v.09a5.08 5.08 0 0 0 5 5.07h6.65a5.08 5.08 0 0 1 5.08 5.08 5.08 5.08 0 0 1 -5.04 5.1h-9.34" stroke="#e57200"/><path d="m76.98 73.55v30.37" stroke="#e57200"/><path d="m122.74 115.93a8.64 8.64 0 0 1 12-7.95v-38.07a8.56 8.56 0 0 1 -11.69-10.17h-136.33v58h136.21a8.65 8.65 0 0 1 -.19-1.81z" stroke="#2c444c"/><circle cx="77.37" cy="88.74" r="20.3" stroke="#2c444c"/><path d="m-13.28 52.42h156.1v70.83h-156.1z" stroke="#2c444c"/></g><circle cx="133" cy="61.1" fill="#2c444c" r="4.12"/><circle cx="133" cy="116.07" fill="#2c444c" r="4.12"/></g><path d="m151.14 27.17a64.67 64.67 0 1 1 -52.85-13.71" fill="none" stroke="#2c444c" stroke-linecap="round" stroke-miterlimit="10" stroke-width="2.5"/></svg>