<svg id="Layer_1" data-name="Layer 1" xmlns="http://www.w3.org/2000/svg" viewBox="0 0 220 155"><defs><clipPath id="clip-path"><path class="cls-1" d="M151.14 27.17a64.67 64.67 0 11-52.85-13.71"/></clipPath><style>.cls-1,.cls-3,.cls-4{fill:none;stroke-linecap:round;stroke-linejoin:round}.cls-1,.cls-4{stroke:#2c444c}.cls-1{stroke-width:3px}.cls-3{stroke:#e57200}.cls-3,.cls-4{stroke-width:2.5px}.cls-5{fill:#2c444c}</style></defs><g clip-path="url(#clip-path)"><path class="cls-3" d="M81.5 78.59H74a5.08 5.08 0 00-5 5.07v.09a5.08 5.08 0 005 5.07h6.65a5.08 5.08 0 015.08 5.08 5.08 5.08 0 01-5.04 5.1h-9.34M76.98 73.55v30.37"/><path class="cls-4" d="M122.74 115.93a8.64 8.64 0 0112-7.95V69.91a8.56 8.56 0 01-11.69-10.17H-13.28v58h136.21a8.65 8.65 0 01-.19-1.81z"/><circle class="cls-4" cx="77.37" cy="88.74" r="20.3"/><path class="cls-4" d="M-13.28 52.42h156.1v70.83h-156.1z"/><circle class="cls-5" cx="133" cy="61.1" r="4.12"/><circle class="cls-5" cx="133" cy="116.07" r="4.12"/></g><path class="cls-1" d="M151.14 27.17a64.67 64.67 0 11-52.85-13.71"/><path stroke-dasharray="0 5" stroke-width="2.5" stroke="#e57200" fill="none" stroke-linecap="round" stroke-linejoin="round" d="M123.17 45.31l-.52-30.06"/><path class="cls-3" d="M141.45 25.37L122.6 6.53l-18.85 18.84"/></svg>