<svg viewBox="0 0 220 155" xmlns="http://www.w3.org/2000/svg" xmlns:xlink="http://www.w3.org/1999/xlink"><clipPath id="a"><path d="m151.14 27.17a64.67 64.67 0 1 1 -52.85-13.71"/></clipPath><g clip-path="url(#a)"><g fill="none" stroke-linecap="round" stroke-linejoin="round" stroke-width="2.5"><path d="m81.5 78.59h-7.5a5.08 5.08 0 0 0 -5 5.07v.09a5.08 5.08 0 0 0 5 5.07h6.65a5.08 5.08 0 0 1 5.08 5.08 5.08 5.08 0 0 1 -5.04 5.1h-9.34m5.63-25.45v30.37" stroke="#e57200"/><g stroke="#2c444c"><path d="m122.74 115.93a8.64 8.64 0 0 1 12-7.95v-38.07a8.56 8.56 0 0 1 -11.69-10.17h-136.33v58h136.21a8.65 8.65 0 0 1 -.19-1.81z"/><circle cx="77.37" cy="88.74" r="20.3"/><path d="m-13.28 52.42h156.1v70.83h-156.1z"/></g></g><g fill="#2c444c"><circle cx="133" cy="61.1" r="4.12"/><circle cx="133" cy="116.07" r="4.12"/></g></g><g fill="none" stroke-linecap="round" stroke-linejoin="round"><path d="m151.14 27.17a64.67 64.67 0 1 1 -52.85-13.71" stroke="#2c444c" stroke-width="3"/><g stroke="#e57200" stroke-width="2.5"><path d="m123.17 45.31-.52-30.06" stroke-dasharray="0 5"/><path d="m141.45 25.37-18.85-18.84-18.85 18.84"/></g></g></svg>